<svg width="536" height="420" viewBox="0 0 536 420" fill="none" xmlns="http://www.w3.org/2000/svg">
<path d="M267.615 348.186L60.066 281.727L162.142 157.48L267.615 348.186Z" fill="#F1F5F9"/>
<path d="M268.16 348.098L475.709 281.639L373.633 157.391L268.16 348.098Z" fill="#F1F5F9"/>
<path d="M267.557 316.92L327.312 213.42H207.801L267.557 316.92Z" fill="#059669"/>
<path d="M327.353 4.14336e-07C336.736 1.2346e-06 345.044 1.41597 352.276 4.24789C359.411 7.07982 364.982 11.4742 368.989 17.431C372.996 23.3878 375 30.9559 375 40.1352L375 100.045C375 101.119 374.609 102.047 373.827 102.828C373.045 103.609 372.117 104 371.042 104L342.307 104C341.232 104 340.303 103.609 339.522 102.828C338.74 102.047 338.349 101.119 338.349 100.045L338.349 40.7211C338.349 37.108 337.469 34.3249 335.71 32.3718C333.853 30.4188 331.116 29.4423 327.5 29.4423C323.884 29.4422 321.196 30.4188 319.437 32.3718C317.58 34.3249 316.651 37.108 316.651 40.7211L316.651 100.045C316.651 101.119 316.26 102.047 315.478 102.828C314.696 103.609 313.768 104 312.693 104L283.958 104C282.883 104 281.955 103.609 281.173 102.828C280.391 102.047 280 101.119 280 100.045L280 40.1352C280 30.9559 282.004 23.3878 286.011 17.431C290.018 11.4742 295.589 7.07981 302.724 4.24789C309.859 1.41597 318.068 -3.97383e-07 327.353 4.14336e-07Z" fill="white"/>
<path d="M210.353 2.00001C219.736 2.00001 228.044 3.40236 235.276 6.20705C242.411 9.01175 247.982 13.3639 251.989 19.2634C255.996 25.1629 258 32.6582 258 41.7493L258 101.083C258 102.147 257.609 103.066 256.827 103.839C256.045 104.613 255.117 105 254.042 105L225.307 105C224.232 105 223.303 104.613 222.522 103.839C221.74 103.066 221.349 102.147 221.349 101.083L221.349 42.3296C221.349 38.7512 220.469 35.9948 218.71 34.0606C216.853 32.1263 214.116 31.1592 210.5 31.1592C206.884 31.1592 204.196 32.1263 202.437 34.0606C200.58 35.9948 199.651 38.7512 199.651 42.3296L199.651 101.083C199.651 102.147 199.26 103.066 198.478 103.839C197.696 104.613 196.768 105 195.693 105L166.958 105C165.883 105 164.955 104.613 164.173 103.839C163.391 103.066 163 102.147 163 101.083L163 41.7493C163 32.6582 165.004 25.1629 169.011 19.2634C173.018 13.3639 178.589 9.01174 185.724 6.20705C192.859 3.40236 201.068 2.00001 210.353 2.00001Z" fill="white"/>
</svg>
